<svg xmlns="http://www.w3.org/2000/svg" width="220" height="300.816" viewBox="0 0 220 300.816"><defs><style>.a{fill:#c8e7f7;opacity:0.5;}</style></defs><path class="a" d="M-3646.5,20.813h-220c.02-.908.039-1.92.052-2.66V17.91a204.405,204.405,0,0,1,1.218-21.393,85.118,85.118,0,0,1,6.178-23.994,58.619,58.619,0,0,1,6.457-11.267,52.511,52.511,0,0,1,9.5-9.878,57.8,57.8,0,0,1,13.15-7.814,78.2,78.2,0,0,1,17.4-5.073,119.414,119.414,0,0,1,20.623-1.667c1.153,0,2.344.014,3.54.041a210.587,210.587,0,0,1,30.533,3.175,137.788,137.788,0,0,0,23.255,2.109,98.672,98.672,0,0,0,17.076-1.42c40.581-7.155,54.16-39.358,53.458-64.76-.473-17.151-7.035-32.514-17.552-41.094a31.913,31.913,0,0,0-9.34-5.34,30.632,30.632,0,0,0-10.426-1.8,34.458,34.458,0,0,0-5.959.532c-.218.039-.428.077-.644.119-.44.086-.911.174-1.44.268h-.01a80.7,80.7,0,0,1-13.965,1.237,75.941,75.941,0,0,1-9.092-.544,70.282,70.282,0,0,1-20.369-5.6,62.49,62.49,0,0,1-16.509-10.721,53.755,53.755,0,0,1-11.481-14.659,47.413,47.413,0,0,1-4.875-14.314,46.227,46.227,0,0,1,.061-15.536A53.028,53.028,0,0,1-3780-247.567a71.79,71.79,0,0,1,11.935-15.958,55.413,55.413,0,0,1,13.956-10.5,51.992,51.992,0,0,1,15.073-5.1,59.862,59.862,0,0,1,10.351-.878,81.373,81.373,0,0,1,21.97,3.267,137.063,137.063,0,0,1,29.476,12.6,199.784,199.784,0,0,1,21.471,14.007c4.885,3.656,7.96,6.324,8.294,6.616l.01.008.954,5.413v258.9h0Z" transform="translate(3866.5 280.003)"/></svg>