<svg xmlns="http://www.w3.org/2000/svg" width="113.84" height="113.84" viewBox="0 0 113.84 113.84"><defs><style>.a{fill:#ff158b;}.b{fill:#002163;}</style></defs><path class="a" d="M56.92,0a56.92,56.92,0,1,0,56.92,56.92A56.983,56.983,0,0,0,56.92,0Zm0,0"/><path class="b" d="M217.818,208.163a6.827,6.827,0,1,1-9.655,9.655L187.646,197.3l-20.517,20.518a6.827,6.827,0,0,1-9.655-9.655l20.518-20.517-20.518-20.517a6.827,6.827,0,0,1,9.655-9.655l20.517,20.518,20.517-20.518a6.827,6.827,0,0,1,9.655,9.655L197.3,187.646Zm0,0" transform="translate(-114.388 -151.063)"/></svg>